<?xml version="1.0" encoding="UTF-8" standalone="no"?>
<!DOCTYPE svg PUBLIC "-//W3C//DTD SVG 1.1//EN" "http://www.w3.org/Graphics/SVG/1.1/DTD/svg11.dtd">
<svg width="100%" height="100%" viewBox="0 0 1600 501" version="1.1" xmlns="http://www.w3.org/2000/svg" xmlns:xlink="http://www.w3.org/1999/xlink" xml:space="preserve" xmlns:serif="http://www.serif.com/" style="fill-rule:evenodd;clip-rule:evenodd;stroke-linejoin:round;stroke-miterlimit:2;">
    <g transform="matrix(1,0,0,1,0,-553)">
        <g id="Libroo-Icon---Text" serif:id="Libroo Icon + Text" transform="matrix(2.3103,0,0,1.07016,-26.9261,-25.2003)">
            <rect x="11.655" y="540.624" width="692.55" height="467.219" style="fill:none;"/>
            <g transform="matrix(0.432843,0,0,0.934439,16.1301,23.5482)">
                <g>
                    <g id="Logo" transform="matrix(1,0,0,1,-22.7799,-11.8729)">
                        <g>
                            <g transform="matrix(1.03893,0,0,1.05592,-11.8322,-55.7799)">
                                <path d="M88.083,1012.63L88.083,638.752C88.083,629.399 95.846,621.754 105.36,621.754L139.913,621.754C149.427,621.754 157.19,629.399 157.19,638.752L157.19,956.639C157.19,959.223 158.261,961.777 160.126,963.613C161.983,965.44 164.576,966.502 167.214,966.502L388.494,966.502C397.099,966.502 404.121,973.417 404.121,981.876L404.121,1012.63C404.121,1021.09 397.099,1028 388.494,1028L103.709,1028C95.104,1028 88.083,1021.09 88.083,1012.63Z" style="fill:rgb(63,81,181);"/>
                            </g>
                            <g transform="matrix(1.06701,0,0,0.990915,84.4525,5.458)">
                                <path d="M151.477,618.859L151.477,929.541C151.477,939.529 143.897,947.655 134.655,947.655L101.01,947.655C91.768,947.655 84.188,939.529 84.188,929.541L84.188,618.859C84.188,608.871 91.768,600.745 101.01,600.745L134.655,600.745C143.897,600.745 151.477,608.871 151.477,618.859Z" style="fill:rgb(63,81,181);"/>
                            </g>
                            <g transform="matrix(1.06701,0,0,0.669349,179.055,310.191)">
                                <path d="M151.477,627.561L151.477,920.838C151.477,935.756 143.815,947.655 134.655,947.655L101.01,947.655C91.85,947.655 84.188,935.756 84.188,920.838L84.188,627.561C84.188,612.644 91.85,600.745 101.01,600.745L134.655,600.745C143.815,600.745 151.477,612.644 151.477,627.561Z" style="fill:rgb(63,81,181);"/>
                            </g>
                        </g>
                    </g>
                    <g transform="matrix(31.9572,0,0,31.9572,-14717.1,-23831.5)">
                        <g transform="matrix(12,0,0,12,473.112,774.76)">
                            <path d="M0.185,-0.088L0.501,-0.088L0.501,-0L0.086,-0L0.086,-0.708L0.185,-0.708L0.185,-0.088Z" style="fill:rgb(63,81,181);fill-rule:nonzero;"/>
                        </g>
                        <g transform="matrix(12,0,0,12,479.244,774.76)">
                            <path d="M0.176,-0L0.082,-0L0.082,-0.474L0.176,-0.474L0.176,-0ZM0.192,-0.645L0.173,-0.602L0.129,-0.585L0.085,-0.603L0.067,-0.645L0.085,-0.689L0.129,-0.706L0.173,-0.689L0.192,-0.645Z" style="fill:rgb(63,81,181);fill-rule:nonzero;"/>
                        </g>
                        <g transform="matrix(12,0,0,12,482.352,774.76)">
                            <path d="M0.174,-0.075L0.174,-0L0.083,-0L0.083,-0.756L0.177,-0.756L0.177,-0.403L0.18,-0.403L0.247,-0.463L0.349,-0.487L0.445,-0.468L0.52,-0.415L0.569,-0.336L0.586,-0.238L0.569,-0.14L0.521,-0.06L0.446,-0.007L0.347,0.013L0.25,-0.01L0.176,-0.075L0.174,-0.075ZM0.489,-0.238L0.479,-0.302L0.449,-0.357L0.4,-0.395L0.331,-0.409L0.265,-0.395L0.215,-0.357L0.182,-0.302L0.171,-0.237L0.183,-0.172L0.215,-0.118L0.265,-0.08L0.331,-0.066L0.4,-0.081L0.449,-0.119L0.479,-0.174L0.489,-0.238Z" style="fill:rgb(63,81,181);fill-rule:nonzero;"/>
                        </g>
                        <g transform="matrix(12,0,0,12,489.984,774.76)">
                            <path d="M0.081,-0.372L0.08,-0.421L0.077,-0.474L0.166,-0.474L0.169,-0.432L0.17,-0.394L0.173,-0.394L0.232,-0.462L0.318,-0.487L0.355,-0.483L0.351,-0.396L0.308,-0.401L0.249,-0.389L0.208,-0.355L0.183,-0.307L0.175,-0.249L0.175,-0L0.081,-0L0.081,-0.372Z" style="fill:rgb(63,81,181);fill-rule:nonzero;"/>
                        </g>
                        <g transform="matrix(12,0,0,12,494.112,774.76)">
                            <path d="M0.561,-0.238L0.541,-0.137L0.487,-0.058L0.406,-0.006L0.305,0.013L0.204,-0.006L0.123,-0.057L0.069,-0.137L0.05,-0.238L0.069,-0.339L0.123,-0.417L0.204,-0.468L0.305,-0.487L0.406,-0.469L0.487,-0.417L0.542,-0.339L0.561,-0.238ZM0.463,-0.238L0.452,-0.303L0.422,-0.358L0.372,-0.395L0.305,-0.409L0.237,-0.395L0.188,-0.358L0.157,-0.303L0.147,-0.238L0.157,-0.173L0.188,-0.118L0.237,-0.08L0.305,-0.066L0.372,-0.08L0.422,-0.118L0.452,-0.173L0.463,-0.238Z" style="fill:rgb(63,81,181);fill-rule:nonzero;"/>
                        </g>
                        <g transform="matrix(12,0,0,12,501.432,774.76)">
                            <path d="M0.561,-0.238L0.541,-0.137L0.487,-0.058L0.406,-0.006L0.305,0.013L0.204,-0.006L0.123,-0.058L0.069,-0.137L0.05,-0.238L0.069,-0.339L0.123,-0.417L0.204,-0.468L0.305,-0.487L0.406,-0.469L0.487,-0.417L0.542,-0.339L0.561,-0.238ZM0.463,-0.238L0.452,-0.303L0.422,-0.358L0.372,-0.395L0.305,-0.409L0.238,-0.395L0.188,-0.358L0.157,-0.303L0.147,-0.238L0.157,-0.173L0.188,-0.118L0.237,-0.08L0.305,-0.066L0.372,-0.08L0.422,-0.118L0.452,-0.173L0.463,-0.238Z" style="fill:rgb(63,81,181);fill-rule:nonzero;"/>
                        </g>
                    </g>
                </g>
            </g>
        </g>
    </g>
</svg>
