<?xml version="1.0" encoding="UTF-8" standalone="no"?>
<!DOCTYPE svg PUBLIC "-//W3C//DTD SVG 1.1//EN" "http://www.w3.org/Graphics/SVG/1.1/DTD/svg11.dtd">
<svg width="100%" height="100%" viewBox="0 0 500 500" version="1.1" xmlns="http://www.w3.org/2000/svg" xmlns:xlink="http://www.w3.org/1999/xlink" xml:space="preserve" xmlns:serif="http://www.serif.com/" style="fill-rule:evenodd;clip-rule:evenodd;stroke-linejoin:round;stroke-miterlimit:2;">
    <rect id="Libroo-Icon" serif:id="Libroo Icon" x="0" y="0" width="500" height="500" style="fill:none;"/>
    <g id="Libroo-Icon1" serif:id="Libroo Icon">
        <g id="Logo" transform="matrix(1,0,0,1,6.15091,-565.228)">
            <g>
                <g transform="matrix(1.03893,0,0,1.05592,-11.8322,-55.7799)">
                    <path d="M88.083,1012.63L88.083,638.752C88.083,629.385 95.835,621.754 105.36,621.754L139.913,621.754C149.438,621.754 157.19,629.385 157.19,638.752L157.19,956.639C157.19,959.238 158.253,961.77 160.126,963.613C161.994,965.451 164.566,966.502 167.214,966.502L388.494,966.502C397.109,966.502 404.121,973.404 404.121,981.876L404.121,1012.63C404.121,1021.1 397.109,1028 388.494,1028L103.709,1028C95.095,1028 88.083,1021.1 88.083,1012.63Z" style="fill:rgb(63,81,181);"/>
                </g>
                <g transform="matrix(1.06701,0,0,0.990915,84.4525,5.458)">
                    <path d="M151.477,618.859L151.477,929.541C151.477,939.534 143.918,947.655 134.655,947.655L101.01,947.655C91.747,947.655 84.188,939.534 84.188,929.541L84.188,618.859C84.188,608.866 91.747,600.745 101.01,600.745L134.655,600.745C143.918,600.745 151.477,608.866 151.477,618.859Z" style="fill:rgb(63,81,181);"/>
                </g>
                <g transform="matrix(1.06701,0,0,0.669349,179.055,310.191)">
                    <path d="M151.477,627.561L151.477,920.838C151.477,935.698 143.877,947.655 134.655,947.655L101.01,947.655C91.788,947.655 84.188,935.698 84.188,920.838L84.188,627.561C84.188,612.702 91.788,600.745 101.01,600.745L134.655,600.745C143.877,600.745 151.477,612.702 151.477,627.561Z" style="fill:rgb(63,81,181);"/>
                </g>
            </g>
        </g>
    </g>
</svg>
